# xmcd
# Track frame offsets:
# 150
# 12919
# 23811
# 42179
# 59040
# 75860
# 92806
# 107510
# 129220
# 143607
# 160147
# 173637
# 189556
# 207162
# 217088
# 232549
# 253066
# 268519
# 285974
# 311315
# 336374
#
# Disc length: 4685 seconds
# Revision: 0
# Processed by: cddbd v1.5.2PL0 Copyright (c) Steve Scherf et al.
# Submitted via: VisiTrax 2.10.3.257 - For more info visit www.synapsa.com
#
DISCID=10124b15
DTITLE=Emmylou Harris - Songbird - Rare Tracks And Forgotten Gems - Disc 1
DYEAR=2007
DGENRE=Country
TTITLE0=Clocks (alternate version)
TTITLE1=The Angels Rejoiced Last Night
TTITLE2=The Old Country Baptising (with Gram Parsons)
TTITLE3=Coat Of Many Colors
TTITLE4=For No One
TTITLE5=Ooh Las Vegas
TTITLE6=Satan's Jewel Crown
TTITLE7=Tulsa Queen
TTITLE8=My Songbird
TTITLE9=Green Rolling Hills
TTITLE10=One Paper Kid (with Willie Nelson)
TTITLE11=Sorrow In The Wind
TTITLE12=Rough And Rocky
TTITLE13=Jordan (with Johnny Cash)
TTITLE14=The Darkest Hour Is Just Before The Dawn
TTITLE15=Ashes By Now (with Dr. John)
TTITLE16=How High The Moon
TTITLE17=Spanish Johnny (with Waylon Jennings)
TTITLE18=The Last Cheater's Waltz
TTITLE19=Racing In The Streets
TTITLE20=Like An Old Fashioned Waltz
EXTD=
EXTT0=
EXTT1=
EXTT2=
EXTT3=
EXTT4=
EXTT5=
EXTT6=
EXTT7=
EXTT8=
EXTT9=
EXTT10=
EXTT11=
EXTT12=
EXTT13=
EXTT14=
EXTT15=
EXTT16=
EXTT17=
EXTT18=
EXTT19=
EXTT20=
PLAYORDER=
